<svg width="20" height="20" viewBox="0 0 20 20" fill="none" xmlns="http://www.w3.org/2000/svg">
<path d="M9.76958 3.33337C9.9239 3.33337 10.0782 3.33337 10.2325 3.33337C10.2753 3.34184 10.3179 3.35045 10.3606 3.35845C11.3757 3.54877 12.07 4.50792 11.9123 5.52722C11.8023 6.23865 11.3957 6.73499 10.7361 7.0244C10.6744 7.05147 10.6526 7.08409 10.6528 7.1501C10.6546 7.97046 10.654 8.79082 10.6541 9.61103C10.6541 9.71104 10.6566 9.71335 10.7595 9.71335C12.0092 9.71335 13.2588 9.71304 14.5085 9.71381C14.5861 9.71381 14.6623 9.70504 14.7378 9.68996C15.3467 9.56811 15.7597 9.02838 15.7561 8.46542C15.7534 8.03477 15.7537 7.60413 15.7582 7.17348C15.7591 7.08825 15.7307 7.04686 15.6523 7.01424C14.9386 6.71714 14.4188 5.97263 14.4852 5.11965C14.5328 4.50592 14.8134 4.02404 15.3123 3.66694C15.5745 3.47923 15.8719 3.37892 16.1893 3.33337C16.3386 3.33337 16.4876 3.33337 16.6369 3.33337C16.6467 3.33614 16.6563 3.3403 16.6663 3.34168C17.1977 3.41738 17.6267 3.66817 17.9538 4.09143C18.1673 4.36744 18.2844 4.68331 18.3344 5.0258C18.3344 5.17965 18.3344 5.33351 18.3344 5.48737C18.3318 5.49721 18.3282 5.50691 18.3265 5.51706C18.2041 6.24019 17.8014 6.7433 17.1278 7.03209C17.0727 7.05563 17.0583 7.08917 17.0586 7.1441C17.0603 7.46966 17.0615 7.79537 17.0586 8.12093C17.0568 8.3231 17.0686 8.52542 17.0458 8.72774C16.9815 9.29778 16.7528 9.79305 16.358 10.2071C15.8466 10.7434 15.2123 11.0116 14.4713 11.0144C13.2421 11.0188 12.0129 11.0156 10.7838 11.0156C10.6543 11.0156 10.6543 11.0157 10.6543 11.1479C10.6543 11.9478 10.6558 12.7477 10.6523 13.5476C10.6518 13.6381 10.6795 13.6809 10.7643 13.717C11.5466 14.049 12.019 14.8534 11.9216 15.6756C11.839 16.373 11.4774 16.8798 10.8565 17.2051C10.6563 17.3099 10.4396 17.3628 10.2174 17.3959C10.0734 17.3959 9.9293 17.3959 9.78532 17.3959C9.74241 17.388 9.69967 17.38 9.65677 17.3725C8.63964 17.1937 7.92837 16.2206 8.08794 15.2083C8.19951 14.5004 8.59751 14.0016 9.25353 13.7109C9.32698 13.6782 9.35029 13.6402 9.34998 13.5621C9.3472 12.7543 9.34828 11.9466 9.34828 11.1388C9.34828 11.0157 9.34812 11.0156 9.22498 11.0156C7.60723 11.0156 5.98948 11.0156 4.37158 11.0156C4.24597 11.0156 4.24566 11.0157 4.24566 11.1379C4.2455 11.943 4.24674 12.7483 4.2438 13.5535C4.2435 13.6372 4.26834 13.6799 4.34766 13.7142C5.14149 14.0572 5.60522 14.8309 5.51124 15.6847C5.44149 16.3181 5.11896 16.8026 4.57343 17.1366C4.33979 17.2797 4.08192 17.3546 3.81294 17.3959C3.66371 17.3959 3.51464 17.3959 3.36541 17.3959C3.35306 17.3928 3.34087 17.3885 3.32837 17.3866C2.80059 17.3086 2.37359 17.0591 2.04843 16.6378C1.83516 16.3618 1.71695 16.0464 1.66772 15.7035C1.66772 15.5496 1.66772 15.3957 1.66772 15.2419C1.67081 15.2294 1.67467 15.2173 1.67683 15.2046C1.79967 14.4881 2.19967 13.9884 2.86618 13.7004C2.93192 13.6721 2.9438 13.6332 2.94365 13.5707C2.94257 11.4333 2.94242 9.29578 2.94442 7.1584C2.94442 7.08455 2.91927 7.05086 2.85198 7.02301C2.4472 6.855 2.13347 6.58098 1.91171 6.20311C1.78146 5.98109 1.70862 5.73969 1.66772 5.48737C1.66772 5.33351 1.66772 5.17965 1.66772 5.0258C1.67112 5.00826 1.67498 4.99087 1.67791 4.97333C1.7722 4.39283 2.06587 3.94142 2.56063 3.62109C2.806 3.46215 3.07822 3.37707 3.36526 3.33337C3.51448 3.33337 3.66356 3.33337 3.81279 3.33337C3.85816 3.34168 3.90337 3.34999 3.94874 3.35845C4.92745 3.54062 5.6347 4.44668 5.50862 5.47229C5.41896 6.20188 5.01402 6.71653 4.34118 7.01701C4.26803 7.04963 4.24319 7.0884 4.2435 7.16625C4.24597 7.97631 4.24488 8.78636 4.24504 9.59642C4.24504 9.71166 4.2472 9.7135 4.36078 9.7135C5.98578 9.7135 7.61078 9.7135 9.23578 9.7135C9.34751 9.7135 9.34797 9.71319 9.34797 9.60242C9.34812 8.79236 9.34674 7.98231 9.34998 7.17225C9.35029 7.08671 9.32189 7.04717 9.2438 7.01455C8.46093 6.68776 7.98794 5.89063 8.08115 5.05241C8.15383 4.39806 8.48547 3.90818 9.05075 3.57354C9.27251 3.4423 9.5168 3.37415 9.76958 3.33337Z" fill="#959595"/>
</svg>
