<svg width="803" height="866" viewBox="0 0 803 866" fill="none" xmlns="http://www.w3.org/2000/svg">
<g opacity="0.13" clip-path="url(#clip0_2045_502)">
<path fill-rule="evenodd" clip-rule="evenodd" d="M430.338 737.17C391.28 737.17 353.925 729.741 319.662 716.153L196.682 796.664C263.946 840.539 344.208 866 430.338 866C589.601 866 728.671 778.949 803.065 649.547L692.2 585.101C639.891 676.025 542.213 737.17 430.338 737.17Z" fill="#1572D3"/>
<path fill-rule="evenodd" clip-rule="evenodd" d="M143.113 110.543L269.753 433.032L143.113 755.456L343.074 624.531L635.728 433.032L343.074 241.469L143.113 110.543Z" fill="#1572D3"/>
<path fill-rule="evenodd" clip-rule="evenodd" d="M430.34 128.83C542.215 128.83 639.892 189.975 692.202 280.899L803.067 216.452C728.61 87.0508 589.602 0 430.34 0C344.147 0 263.948 25.4613 196.621 69.3359L319.664 149.847C353.927 136.259 391.219 128.83 430.34 128.83Z" fill="#1572D3"/>
<path fill-rule="evenodd" clip-rule="evenodd" d="M94.6488 703.962L153.331 555.004L201.413 432.968L153.331 310.995L94.6488 162.038C35.4617 236.199 0 330.425 0 433.032C0 535.575 35.4617 629.801 94.6488 703.962Z" fill="#1572D3"/>
</g>
<defs>
<clipPath id="clip0_2045_502">
<rect width="803" height="866" fill="white"/>
</clipPath>
</defs>
</svg>
