<svg width="24" height="25" viewBox="0 0 24 25" fill="none" xmlns="http://www.w3.org/2000/svg">
<path d="M21.97 19.0519C21.97 19.4119 21.89 19.7819 21.72 20.1419C21.55 20.5019 21.33 20.8419 21.04 21.1619C20.55 21.7019 20.01 22.0919 19.4 22.3419C18.8 22.5919 18.15 22.7219 17.45 22.7219C16.43 22.7219 15.34 22.4819 14.19 21.9919C13.04 21.5019 11.89 20.8419 10.75 20.0119C9.6 19.1719 8.51 18.2419 7.47 17.2119C6.44 16.1719 5.51 15.0819 4.68 13.9419C3.86 12.8019 3.2 11.6619 2.72 10.5319C2.24 9.39192 2 8.30192 2 7.26192C2 6.58192 2.12 5.93192 2.36 5.33192C2.6 4.72192 2.98 4.16192 3.51 3.66192C4.15 3.03192 4.85 2.72192 5.59 2.72192C5.87 2.72192 6.15 2.78192 6.4 2.90192C6.66 3.02192 6.89 3.20192 7.07 3.46192L9.39 6.73192C9.57 6.98192 9.7 7.21192 9.79 7.43192C9.88 7.64192 9.93 7.85192 9.93 8.04192C9.93 8.28192 9.86 8.52192 9.72 8.75192C9.59 8.98192 9.4 9.22192 9.16 9.46192L8.4 10.2519C8.29 10.3619 8.24 10.4919 8.24 10.6519C8.24 10.7319 8.25 10.8019 8.27 10.8819C8.3 10.9619 8.33 11.0219 8.35 11.0819C8.53 11.4119 8.84 11.8419 9.28 12.3619C9.73 12.8819 10.21 13.4119 10.73 13.9419C11.27 14.4719 11.79 14.9619 12.32 15.4119C12.84 15.8519 13.27 16.1519 13.61 16.3319C13.66 16.3519 13.72 16.3819 13.79 16.4119C13.87 16.4419 13.95 16.4519 14.04 16.4519C14.21 16.4519 14.34 16.3919 14.45 16.2819L15.21 15.5319C15.46 15.2819 15.7 15.0919 15.93 14.9719C16.16 14.8319 16.39 14.7619 16.64 14.7619C16.83 14.7619 17.03 14.8019 17.25 14.8919C17.47 14.9819 17.7 15.1119 17.95 15.2819L21.26 17.6319C21.52 17.8119 21.7 18.0219 21.81 18.2719C21.91 18.5219 21.97 18.7719 21.97 19.0519Z" stroke="#D6D6D6" stroke-width="1.5" stroke-miterlimit="10"/>
</svg>
