<svg width="20" height="20" viewBox="0 0 20 20" fill="none" xmlns="http://www.w3.org/2000/svg">
<path d="M9.41673 17.6327C7.19404 17.6327 4.97135 17.6329 2.74845 17.6325C2.51468 17.6325 2.28324 17.6122 2.06701 17.5139C1.81063 17.3977 1.66881 17.2127 1.66944 16.9143C1.67388 14.5893 1.67768 12.2645 1.66775 9.93954C1.66543 9.41789 1.82078 8.95712 2.08181 8.52087C2.30057 8.15542 2.59014 7.84726 2.88605 7.54459C4.04199 6.36265 5.37442 5.42208 6.83451 4.65547C7.72858 4.18624 8.6571 3.79882 9.61457 3.48093C10.6858 3.1252 11.7806 2.86396 12.8943 2.68113C13.5823 2.56847 14.2741 2.48752 14.9688 2.43341C15.8715 2.36303 16.7766 2.34971 17.6817 2.36831C18.0932 2.37677 18.3764 2.7327 18.3293 3.14317C18.2739 3.62529 18.2335 4.1091 18.186 4.59206C18.1401 5.05769 18.0923 5.52311 18.0471 5.98874C18.0008 6.46495 17.9571 6.94115 17.911 7.41735C17.8668 7.876 17.8214 8.33466 17.7761 8.79332C17.7372 9.18878 17.6977 9.58424 17.6588 9.97991C17.6115 10.4595 17.5643 10.9391 17.5174 11.4187C17.4726 11.8773 17.4287 12.336 17.3836 12.7944C17.3373 13.267 17.2898 13.7394 17.2433 14.212C17.205 14.6005 17.1697 14.9894 17.1296 15.3779C17.075 15.9061 17.0438 16.4375 16.9603 16.9619C16.8901 17.4021 16.5936 17.6331 16.1484 17.6329C13.9046 17.6325 11.6606 17.6327 9.41673 17.6327ZM4.04833 9.87C4.0739 9.9036 4.11068 9.90382 4.14281 9.91058C4.41187 9.96849 4.68115 10.0013 4.95909 9.98075C5.55154 9.937 6.0419 9.69478 6.43546 9.25472C6.49126 9.19237 6.54812 9.17208 6.62759 9.17208C8.86402 9.17335 11.1007 9.17314 13.3371 9.17292C14.4112 9.17292 15.4856 9.17166 16.5597 9.17483C16.6633 9.17504 16.6982 9.14672 16.7037 9.03955C16.7168 8.79036 16.7472 8.54222 16.7696 8.29344C16.81 7.84853 16.8499 7.40382 16.8895 6.9589C16.921 6.60508 16.952 6.25105 16.9823 5.89723C17.022 5.43476 17.0622 4.9723 17.0993 4.50963C17.1262 4.17652 17.1454 3.84278 17.1746 3.51009C17.1896 3.34016 17.1854 3.32832 17.0146 3.326C16.4194 3.31754 15.8257 3.33847 15.2317 3.38285C14.6805 3.42407 14.1318 3.48389 13.5857 3.56526C12.7603 3.68806 11.9434 3.85462 11.1362 4.06809C9.91027 4.39232 8.72368 4.82075 7.58908 5.38847C6.68233 5.84227 5.82864 6.3804 5.03835 7.01681C4.87391 7.14934 4.71518 7.28905 4.55687 7.42876C4.46154 7.51288 4.4645 7.51521 4.56828 7.57862C4.6133 7.60609 4.65853 7.63357 4.70081 7.66527C5.17215 8.01804 5.39873 8.49825 5.43973 9.07718C5.44713 9.18201 5.39682 9.24923 5.32644 9.31306C5.07872 9.53816 4.78958 9.68569 4.46873 9.77256C4.33134 9.80955 4.19079 9.83724 4.04833 9.87ZM9.40025 16.526C9.40025 16.5262 9.40025 16.5262 9.40025 16.5264C11.5625 16.5264 13.7247 16.5264 15.887 16.526C15.9324 16.526 15.9793 16.5264 16.0233 16.5163C16.1205 16.4941 16.1954 16.4085 16.1888 16.3364C16.1808 16.2491 16.1062 16.1957 15.9869 16.1933C15.913 16.1919 15.839 16.1925 15.765 16.1925C14.5465 16.1925 13.3282 16.1929 12.1097 16.1929C9.05298 16.1929 5.99625 16.1927 2.93973 16.1927C2.89408 16.1927 2.84779 16.1912 2.80256 16.1963C2.71442 16.206 2.66031 16.2559 2.65207 16.3455C2.64382 16.437 2.69455 16.4933 2.77762 16.5163C2.82052 16.5283 2.86829 16.5258 2.91373 16.5258C5.07576 16.5262 7.23801 16.526 9.40025 16.526ZM14.7684 10.5527C14.7684 10.5525 14.7684 10.5525 14.7684 10.5523C14.4448 10.5523 14.121 10.5512 13.7974 10.5525C13.5542 10.5535 13.3777 10.7161 13.3718 10.9416C13.366 11.1568 13.5394 11.3407 13.7776 11.343C14.432 11.3493 15.0863 11.3491 15.7405 11.3428C15.9867 11.3404 16.1541 11.1608 16.1478 10.9353C16.1417 10.7123 15.9637 10.5531 15.7181 10.5527C15.4017 10.5523 15.0851 10.5527 14.7684 10.5527Z" fill="#959595"/>
</svg>
