<svg width="1440" height="864" viewBox="0 0 1440 864" fill="none" xmlns="http://www.w3.org/2000/svg">
<rect width="1440" height="864" fill="#F7FBFF"/>
<path opacity="0.1" d="M305.324 629V515.783C305.324 463.667 316.547 420.536 338.993 386.391C362.337 352.246 396.006 329.783 440 319V366.174C413.065 373.362 393.761 386.841 382.089 406.609C370.418 425.478 363.684 450.188 361.888 480.739H413.065V629H305.324ZM148 629V515.783C148 463.667 159.223 420.536 181.669 386.391C205.013 352.246 238.682 329.783 282.676 319V366.174C255.74 373.362 236.437 386.841 224.765 406.609C213.093 425.478 206.359 450.188 204.564 480.739H255.74V629H148Z" fill="#1572D3"/>
<path opacity="0.1" d="M1162.68 368V259.53C1162.68 209.6 1151.96 168.278 1130.51 135.565C1108.21 102.852 1076.04 81.3304 1034 71V116.196C1059.74 123.083 1078.18 135.996 1089.33 154.935C1100.48 173.013 1106.92 196.687 1108.63 225.957H1059.74V368H1162.68ZM1313 368V259.53C1313 209.6 1302.28 168.278 1280.83 135.565C1258.53 102.852 1226.36 81.3304 1184.32 71V116.196C1210.06 123.083 1228.5 135.996 1239.65 154.935C1250.8 173.013 1257.24 196.687 1258.95 225.957H1210.06V368H1313Z" fill="#1572D3"/>
</svg>
