<svg width="225" height="67" viewBox="0 0 225 67" fill="none" xmlns="http://www.w3.org/2000/svg">
<path d="M213.945 35.7587L215.252 35.6532C215.788 35.611 216.324 35.5477 216.817 35.4844C218.103 35.2946 219.196 34.9571 220.096 34.493C220.439 34.3242 220.61 34.1976 220.996 33.9234C222.132 33.1218 222.711 32.046 222.797 30.5693C222.818 30.274 222.797 30.042 222.775 29.7888C222.711 28.8606 222.497 28.0801 222.111 27.4684C221.661 26.7301 221.018 26.1605 220.16 25.7386C219.303 25.3167 218.21 25.0003 216.945 24.8104C216.945 24.8104 215.081 24.5151 212.316 24.5151H191.182V42.0449H197.826V35.8852H206.85L217.01 42.066H224.297L213.945 35.7587ZM210.922 26.5613C210.965 26.5613 210.987 26.5613 211.03 26.5613C211.78 26.5824 212.423 26.6035 212.98 26.6668C213.687 26.7512 214.287 26.8988 214.759 27.152C215.252 27.4051 215.638 27.7848 215.831 28.2489C216.024 28.6497 216.109 29.156 216.131 29.7677C216.131 29.8099 216.152 30.6537 216.109 31.0756C216.088 31.4975 215.981 31.9616 215.831 32.278C215.681 32.6155 215.466 32.8898 215.166 33.1218C215.081 33.1851 214.995 33.2484 214.909 33.2906C214.48 33.5226 213.945 33.6703 213.259 33.7547C212.637 33.8179 211.844 33.8601 210.901 33.8601H197.783V26.5613H210.922Z" fill="#5F5F5F"/>
<path d="M21.9836 24.5362V32.7842C21.9836 35.2523 21.062 37.0876 19.2401 38.2267C17.6754 39.2182 15.4035 39.7244 12.5099 39.7244H0.164062V42.066H10.4094C13.2601 42.066 15.875 41.9605 18.1684 41.7496C20.419 41.5386 22.3266 41.1167 23.8698 40.4839C25.3702 39.8721 26.549 38.9861 27.3635 37.847C28.0922 36.8134 28.4995 35.4633 28.5852 33.7968C28.5852 33.6491 28.6067 33.4593 28.6067 33.2483V24.5362H21.9836Z" fill="#5F5F5F"/>
<path d="M98.0526 34.029V39.7246H87.9144C82.5988 39.7246 79.5123 38.037 78.6764 34.7462C78.3335 33.375 78.5478 32.0671 78.6764 31.582C79.4909 28.249 82.5345 26.6247 87.9144 26.6247H103.775V24.5363H89.9935C87.0999 24.5363 84.485 24.6417 82.1916 24.8316C79.9625 25.0215 78.0334 25.4433 76.4902 26.0551C74.9684 26.6669 73.811 27.5317 73.0179 28.6709C72.2463 29.7467 71.8605 31.2022 71.8176 32.9953C71.8176 33.0375 71.8176 33.0797 71.8176 33.143C71.8176 33.2273 71.8176 33.3117 71.8176 33.4172C71.8391 35.2736 72.2463 36.7713 73.0394 37.8682C73.8538 39.0073 75.0327 39.8933 76.5331 40.5051C78.0763 41.1379 80.0053 41.5598 82.2344 41.7708C84.5278 41.9817 87.1213 42.0872 89.9935 42.0872H104.676V34.029H98.0526Z" fill="#5F5F5F"/>
<path d="M53.7696 24.5363H46.9322L31.6071 42.0661H35.5723L39.0231 38.1214H58.2921L61.7429 42.0661H69.1161L53.7696 24.5363ZM48.6469 27.1098L56.6417 36.2439H40.6735L48.6469 27.1098Z" fill="#5F5F5F"/>
<path d="M163.082 24.5363L147.757 42.0661H151.722L155.173 38.1003H174.42L177.871 42.0661H185.266L169.941 24.5363H163.082ZM172.813 36.2439H156.823L164.818 27.1098L172.813 36.2439Z" fill="#5F5F5F"/>
<path d="M138.133 24.5363V33.4172C138.133 34.1766 138.026 34.8727 137.876 35.5056C137.019 38.7331 133.954 40.3785 128.681 40.3996H128.016C122.722 40.3996 119.636 38.712 118.8 35.4423C118.65 34.8306 118.564 34.1555 118.564 33.4383V24.5363H111.92V33.6914C111.92 35.59 112.327 37.151 113.141 38.2901C113.656 38.9862 114.299 39.6191 115.07 40.1254C115.542 40.4207 116.056 40.6949 116.635 40.927C117.214 41.159 117.835 41.37 118.521 41.5387C119.657 41.834 120.943 42.045 122.358 42.1927C124.137 42.3614 126.152 42.4669 128.338 42.4669C130.546 42.4669 132.539 42.3614 134.318 42.1927C135.711 42.0661 136.997 41.8551 138.133 41.5598C138.819 41.3911 139.441 41.1801 140.019 40.9481C140.598 40.716 141.112 40.4629 141.584 40.1465C142.377 39.6402 143.02 39.0284 143.513 38.3112C144.328 37.1721 144.735 35.6111 144.735 33.7125V24.5363H138.133Z" fill="#5F5F5F"/>
</svg>
